<mxfile modified="2020-09-25T13:46:13.518Z" host="app.diagrams.net" agent="5.0 (Windows NT 10.0; Win64; x64) AppleWebKit/537.36 (KHTML, like Gecko) Chrome/85.0.4183.121 Safari/537.36" etag="UcmQtRrKOW1HviHjHBAL" version="13.7.5" type="github">
  <diagram id="d1ab7348-05c3-a1e3-ca4d-12c340fd6b49" name="Page-1">
    <mxGraphModel dx="1117" dy="624" grid="1" gridSize="10" guides="1" tooltips="1" connect="1" arrows="1" fold="1" page="1" pageScale="1" pageWidth="1169" pageHeight="827" background="#ffffff" math="0" shadow="0">
      <root>
        <mxCell id="0" />
        <mxCell id="1" parent="0" />
        <mxCell id="6nlNb-rO7tFvggupnzy0-6" style="edgeStyle=orthogonalEdgeStyle;rounded=0;orthogonalLoop=1;jettySize=auto;html=1;entryX=0.5;entryY=0;entryDx=0;entryDy=0;" parent="1" source="6nlNb-rO7tFvggupnzy0-4" target="6nlNb-rO7tFvggupnzy0-5" edge="1">
          <mxGeometry relative="1" as="geometry" />
        </mxCell>
        <mxCell id="6nlNb-rO7tFvggupnzy0-4" value="&lt;font style=&quot;font-size: 20px&quot;&gt;Risk Trigger&lt;/font&gt;" style="strokeWidth=2;html=1;shape=mxgraph.flowchart.start_1;whiteSpace=wrap;" parent="1" vertex="1">
          <mxGeometry x="725" y="130" width="180" height="100" as="geometry" />
        </mxCell>
        <mxCell id="6nlNb-rO7tFvggupnzy0-13" style="edgeStyle=orthogonalEdgeStyle;rounded=0;orthogonalLoop=1;jettySize=auto;html=1;entryX=1;entryY=0.5;entryDx=0;entryDy=0;entryPerimeter=0;fontSize=20;" parent="1" source="6nlNb-rO7tFvggupnzy0-5" target="6nlNb-rO7tFvggupnzy0-10" edge="1">
          <mxGeometry relative="1" as="geometry" />
        </mxCell>
        <mxCell id="6nlNb-rO7tFvggupnzy0-5" value="&lt;font style=&quot;font-size: 20px&quot;&gt;Risk Calculation&lt;/font&gt;" style="rounded=1;whiteSpace=wrap;html=1;absoluteArcSize=1;arcSize=14;strokeWidth=2;" parent="1" vertex="1">
          <mxGeometry x="725" y="370" width="180" height="90" as="geometry" />
        </mxCell>
        <mxCell id="6nlNb-rO7tFvggupnzy0-7" style="edgeStyle=orthogonalEdgeStyle;rounded=0;orthogonalLoop=1;jettySize=auto;html=1;entryX=0.5;entryY=0;entryDx=0;entryDy=0;" parent="1" source="6nlNb-rO7tFvggupnzy0-8" target="6nlNb-rO7tFvggupnzy0-9" edge="1">
          <mxGeometry relative="1" as="geometry" />
        </mxCell>
        <mxCell id="6nlNb-rO7tFvggupnzy0-8" value="&lt;font style=&quot;font-size: 20px&quot;&gt;Strategy Trigger&lt;/font&gt;" style="strokeWidth=2;html=1;shape=mxgraph.flowchart.start_1;whiteSpace=wrap;" parent="1" vertex="1">
          <mxGeometry x="265" y="130" width="180" height="100" as="geometry" />
        </mxCell>
        <mxCell id="6nlNb-rO7tFvggupnzy0-12" style="edgeStyle=orthogonalEdgeStyle;rounded=0;orthogonalLoop=1;jettySize=auto;html=1;entryX=0;entryY=0.5;entryDx=0;entryDy=0;entryPerimeter=0;" parent="1" source="6nlNb-rO7tFvggupnzy0-9" target="6nlNb-rO7tFvggupnzy0-10" edge="1">
          <mxGeometry relative="1" as="geometry">
            <mxPoint x="555" y="610" as="targetPoint" />
          </mxGeometry>
        </mxCell>
        <mxCell id="6nlNb-rO7tFvggupnzy0-9" value="&lt;font style=&quot;font-size: 20px&quot;&gt;Strategy Calculation&lt;/font&gt;" style="rounded=1;whiteSpace=wrap;html=1;absoluteArcSize=1;arcSize=14;strokeWidth=2;" parent="1" vertex="1">
          <mxGeometry x="265" y="370" width="180" height="90" as="geometry" />
        </mxCell>
        <mxCell id="6nlNb-rO7tFvggupnzy0-10" value="Aggregation" style="html=1;dashed=0;whitespace=wrap;shape=mxgraph.dfd.start;fontSize=20;" parent="1" vertex="1">
          <mxGeometry x="505" y="520" width="150" height="70" as="geometry" />
        </mxCell>
        <mxCell id="TljCIg7oOp15toO4h55N-1" value="Triggered once" style="text;html=1;align=center;verticalAlign=middle;resizable=0;points=[];autosize=1;fontSize=20;" vertex="1" parent="1">
          <mxGeometry x="280" y="65" width="150" height="30" as="geometry" />
        </mxCell>
        <mxCell id="TljCIg7oOp15toO4h55N-2" value="Triggered 4 or 5&amp;nbsp; times" style="text;html=1;align=center;verticalAlign=middle;resizable=0;points=[];autosize=1;fontSize=20;" vertex="1" parent="1">
          <mxGeometry x="705" y="65" width="220" height="30" as="geometry" />
        </mxCell>
      </root>
    </mxGraphModel>
  </diagram>
</mxfile>
